<svg id="Capa_1" enable-background="new 0 0 510 510" height="512" viewBox="0 0 510 510" width="512" xmlns="http://www.w3.org/2000/svg"><path fill="#FFFFFF" d="m91.88 255c0-82.396 44.326-154.672 111.5-193.84-110.315-5.369-203.38 83.049-203.38 193.84 0 110.893 93.167 199.204 203.38 193.84-65.875-38.41-111.5-109.987-111.5-193.84z"/><path fill="#FFFFFF" d="m315.94 60.94c-107.051 0-194.06 87.111-194.06 194.06 0 106.965 87.026 194.06 194.06 194.06 107 0 194.06-87.06 194.06-194.06s-87.06-194.06-194.06-194.06zm15 294.99v22.09c0 8.28-6.72 15-15 15s-15-6.72-15-15v-22.09c-12.23 0-29.511 1.633-49.91-12.52-6.8-4.72-8.49-14.07-3.77-20.88 4.72-6.8 14.07-8.49 20.87-3.77 6.153 4.306 13.645 7.093 21.39 7.17h50.35c15.407 0 27.95-12.468 27.95-27.97 0-15.42-12.54-27.96-27.96-27.96-5.231 0-42.667 0-47.84 0-31.96 0-57.96-26-57.96-57.96 0-28.71 19.457-57.97 66.88-57.97v-22.09c0-8.28 6.72-15 15-15s15 6.72 15 15v22.09c7.996 0 18.042-.624 31.67 4.82v.01c10.248 4.095 19.665 11.007 25.14 17.27v.01c5.443 6.048 5.089 15.338-.9 20.96-5.93 5.584-15.427 5.451-21.2-.68-7.29-7.79-17.3-12.3-27.47-12.39h-46.17c-15.23 0-27.95 12.303-27.95 27.97 0 15.42 12.54 27.96 27.96 27.96h47.84c32 0 57.96 26.04 57.96 57.96 0 30.726-21.494 57.97-66.88 57.97z"/></svg>